<svg xmlns="http://www.w3.org/2000/svg" xmlns:xlink="http://www.w3.org/1999/xlink" width="300" height="182" viewBox="0 0 420 182">
  <defs>
    <filter id="Rectangle_11" x="0" y="0" width="420" height="182" filterUnits="userSpaceOnUse">
      <feOffset dx="17" dy="15" input="SourceAlpha"/>
      <feGaussianBlur stdDeviation="12.5" result="blur"/>
      <feFlood flood-opacity="0.059"/>
      <feComposite operator="in" in2="blur"/>
      <feComposite in="SourceGraphic"/>
    </filter>
  </defs>
  <g id="Group_10" data-name="Group 10" transform="translate(-3220.5 -4835.5)">
    <g transform="matrix(1, 0, 0, 1, 3220.5, 4835.5)" filter="url(#Rectangle_11)">
      <g id="Rectangle_11-2" data-name="Rectangle 11" transform="translate(20.5 22.5)" fill="#fff" stroke="#707070" stroke-width="1">
        <rect width="345" height="107" rx="32" stroke="none"/>
        <rect x="0.5" y="0.5" width="344" height="106" rx="31.5" fill="none"/>
      </g>
    </g>
    <g id="Page-1" transform="translate(3275 4879.996)">
      <g id="Dribbble-Light-Preview" transform="translate(0 0.004)">
        <g id="icons">
          <path id="call-_192_" data-name="call-[#192]" d="M106.9,7213.853c-1.883,5.722-9.259,8.575-14.529,8.1-7.2-.65-15.029-4.469-20.974-8.67A69.106,69.106,0,0,1,49.7,7187.394c-3.371-7.172-4.127-15.989.886-22.521a8.619,8.619,0,0,1,6.872-3.857c4.18-.2,4.766,2.189,6.2,5.913,1.069,2.785,2.5,5.627,3.294,8.517,1.492,5.389-3.725,5.61-4.384,10.015-.407,2.777,2.956,6.5,4.477,8.483a41.094,41.094,0,0,0,10.6,9.769c2.318,1.46,6.051,4.092,8.7,2.638,4.083-2.233,3.7-9.119,9.406-6.788a91.221,91.221,0,0,1,8.641,4.459c4.363,2.349,4.16,4.779,2.5,9.831-1.244,3.772,1.244-3.775,0,0" transform="translate(-47 -7161.004)" fill-rule="evenodd"/>
        </g>
      </g>
    </g>
    <text id="Call_us" data-name="Call us" transform="translate(3368 4929)" fill="#494949" font-size="50" font-family="Montserrat-Medium, Montserrat" font-weight="500"><tspan x="0" y="0">Call us</tspan></text>
  </g>
</svg>
